<svg xmlns="http://www.w3.org/2000/svg" viewBox="0 0 900 520"><defs><linearGradient id="g" x1="0" y1="0" x2="1" y2="1"><stop stop-color="#14253d"/><stop offset="1" stop-color="#050914"/></linearGradient></defs><rect width="900" height="520" fill="url(#g)"/><path d="M110 310 C180 185 330 128 450 128 C590 128 720 195 790 310 Z" fill="#1d314d" stroke="#d8c27a" stroke-width="5"/><path d="M162 292 C232 180 346 150 450 150 C555 150 670 183 738 292" fill="none" stroke="#7894b8" stroke-width="12" opacity=".65"/><g fill="#09111e" stroke="#c6d1dd" stroke-width="2"><rect x="304" y="250" width="292" height="88" rx="10"/><circle cx="348" cy="288" r="17"/><circle cx="398" cy="288" r="17"/><circle cx="448" cy="288" r="17"/><circle cx="498" cy="288" r="17"/><circle cx="548" cy="288" r="17"/></g><path d="M450 132 L450 336 M288 170 L348 338 M612 170 L552 338" stroke="#d8c27a" stroke-width="4" opacity=".75"/><text x="450" y="430" font-family="Arial, sans-serif" font-size="34" fill="#f1df9d" text-anchor="middle">B-17 cockpit reference</text><text x="450" y="468" font-family="Arial, sans-serif" font-size="19" fill="#b8c7d8" text-anchor="middle">panel, framing, seats, columns and glazing rhythm</text></svg>
